<svg viewBox="0 0 900 900" xmlns="http://www.w3.org/2000/svg" width="900" height="900">
<defs>
<radialGradient id="bgGrad" cx="50%" cy="35%" r="75%">
<stop offset="0%" stop-color="#F6F0E4"/>
<stop offset="100%" stop-color="#EFE5D0"/>
</radialGradient>
</defs>
<rect width="900" height="900" fill="url(#bgGrad)"/>
<g transform="translate(72.0,108.0) rotate(20) scale(1.1)" opacity="0.35">
<path d="M0,0 C10,-18 30,-24 46,-20 C34,-10 28,4 20,14 C12,6 4,2 0,0 Z" fill="#C89B3C"/>
<path d="M0,0 C-10,-18 -30,-24 -46,-20 C-34,-10 -28,4 -20,14 C-12,6 -4,2 0,0 Z" fill="#C89B3C" opacity="0.8"/>
</g><g transform="translate(828.0,765.0) rotate(200) scale(1.3)" opacity="0.28">
<path d="M0,0 C10,-18 30,-24 46,-20 C34,-10 28,4 20,14 C12,6 4,2 0,0 Z" fill="#C1653A"/>
<path d="M0,0 C-10,-18 -30,-24 -46,-20 C-34,-10 -28,4 -20,14 C-12,6 -4,2 0,0 Z" fill="#C1653A" opacity="0.8"/>
</g>
<polygon points="360.0,425.00000000000006 398.5,477.50000000000006 388.0,565.0 332.0,565.0 321.5,477.50000000000006" fill="#8A9A7E" stroke="#4A1F12" stroke-width="2"/>
<line x1="360.0" y1="425.00000000000006" x2="360.0" y2="565.0" stroke="#4A1F12" stroke-width="1" opacity="0.4"/>
<line x1="321.5" y1="477.50000000000006" x2="360.0" y2="509.00000000000006" stroke="#4A1F12" stroke-width="1" opacity="0.3"/>
<line x1="398.5" y1="477.50000000000006" x2="360.0" y2="509.00000000000006" stroke="#4A1F12" stroke-width="1" opacity="0.3"/>
<polygon points="360.0,425.00000000000006 398.5,477.50000000000006 360.0,456.50000000000006" fill="#E4C578" opacity="0.5"/>

<polygon points="520.0,395.0 550.25,436.25 542.0,505.0 498.0,505.0 489.75,436.25" fill="#C1653A" stroke="#4A1F12" stroke-width="2"/>
<line x1="520.0" y1="395.0" x2="520.0" y2="505.0" stroke="#4A1F12" stroke-width="1" opacity="0.4"/>
<line x1="489.75" y1="436.25" x2="520.0" y2="461.0" stroke="#4A1F12" stroke-width="1" opacity="0.3"/>
<line x1="550.25" y1="436.25" x2="520.0" y2="461.0" stroke="#4A1F12" stroke-width="1" opacity="0.3"/>
<polygon points="520.0,395.0 550.25,436.25 520.0,419.75" fill="#E4C578" opacity="0.5"/>

<polygon points="450.0,572.0 472.0,602.0 466.0,652.0 434.0,652.0 428.0,602.0" fill="#C89B3C" stroke="#4A1F12" stroke-width="2"/>
<line x1="450.0" y1="572.0" x2="450.0" y2="652.0" stroke="#4A1F12" stroke-width="1" opacity="0.4"/>
<line x1="428.0" y1="602.0" x2="450.0" y2="620.0" stroke="#4A1F12" stroke-width="1" opacity="0.3"/>
<line x1="472.0" y1="602.0" x2="450.0" y2="620.0" stroke="#4A1F12" stroke-width="1" opacity="0.3"/>
<polygon points="450.0,572.0 472.0,602.0 450.0,590.0" fill="#E4C578" opacity="0.5"/>

</svg>