<svg viewBox="0 0 900 900" xmlns="http://www.w3.org/2000/svg" width="900" height="900">
<defs>
<radialGradient id="bgGrad" cx="50%" cy="35%" r="75%">
<stop offset="0%" stop-color="#F6F0E4"/>
<stop offset="100%" stop-color="#EFE5D0"/>
</radialGradient>
</defs>
<rect width="900" height="900" fill="url(#bgGrad)"/>
<g transform="translate(72.0,108.0) rotate(20) scale(1.1)" opacity="0.35">
<path d="M0,0 C10,-18 30,-24 46,-20 C34,-10 28,4 20,14 C12,6 4,2 0,0 Z" fill="#C89B3C"/>
<path d="M0,0 C-10,-18 -30,-24 -46,-20 C-34,-10 -28,4 -20,14 C-12,6 -4,2 0,0 Z" fill="#C89B3C" opacity="0.8"/>
</g><g transform="translate(828.0,765.0) rotate(200) scale(1.3)" opacity="0.28">
<path d="M0,0 C10,-18 30,-24 46,-20 C34,-10 28,4 20,14 C12,6 4,2 0,0 Z" fill="#C1653A"/>
<path d="M0,0 C-10,-18 -30,-24 -46,-20 C-34,-10 -28,4 -20,14 C-12,6 -4,2 0,0 Z" fill="#C1653A" opacity="0.8"/>
</g><g transform="translate(450.0,495.00000000000006) rotate(0)"><circle cx="-240.0" cy="0" r="20" fill="#C1653A" stroke="#4A1F12" stroke-width="1" opacity="0.9"/><circle cx="-246.0" cy="-6.0" r="5.6000000000000005" fill="#fff" opacity="0.25"/><circle cx="-200.0" cy="0" r="20" fill="#C1653A" stroke="#4A1F12" stroke-width="1" opacity="0.9"/><circle cx="-206.0" cy="-6.0" r="5.6000000000000005" fill="#fff" opacity="0.25"/><circle cx="-160.0" cy="0" r="20" fill="#C1653A" stroke="#4A1F12" stroke-width="1" opacity="0.9"/><circle cx="-166.0" cy="-6.0" r="5.6000000000000005" fill="#fff" opacity="0.25"/><circle cx="-120.0" cy="0" r="20" fill="#C1653A" stroke="#4A1F12" stroke-width="1" opacity="0.9"/><circle cx="-126.0" cy="-6.0" r="5.6000000000000005" fill="#fff" opacity="0.25"/><circle cx="-80.0" cy="0" r="20" fill="#C1653A" stroke="#4A1F12" stroke-width="1" opacity="0.9"/><circle cx="-86.0" cy="-6.0" r="5.6000000000000005" fill="#fff" opacity="0.25"/><circle cx="-40.0" cy="0" r="20" fill="#C1653A" stroke="#4A1F12" stroke-width="1" opacity="0.9"/><circle cx="-46.0" cy="-6.0" r="5.6000000000000005" fill="#fff" opacity="0.25"/><circle cx="0.0" cy="0" r="20" fill="#C1653A" stroke="#4A1F12" stroke-width="1" opacity="0.9"/><circle cx="-6.0" cy="-6.0" r="5.6000000000000005" fill="#fff" opacity="0.25"/><circle cx="40.0" cy="0" r="20" fill="#C1653A" stroke="#4A1F12" stroke-width="1" opacity="0.9"/><circle cx="34.0" cy="-6.0" r="5.6000000000000005" fill="#fff" opacity="0.25"/><circle cx="80.0" cy="0" r="20" fill="#C1653A" stroke="#4A1F12" stroke-width="1" opacity="0.9"/><circle cx="74.0" cy="-6.0" r="5.6000000000000005" fill="#fff" opacity="0.25"/><circle cx="120.0" cy="0" r="20" fill="#C1653A" stroke="#4A1F12" stroke-width="1" opacity="0.9"/><circle cx="114.0" cy="-6.0" r="5.6000000000000005" fill="#fff" opacity="0.25"/><circle cx="160.0" cy="0" r="20" fill="#C1653A" stroke="#4A1F12" stroke-width="1" opacity="0.9"/><circle cx="154.0" cy="-6.0" r="5.6000000000000005" fill="#fff" opacity="0.25"/><circle cx="200.0" cy="0" r="20" fill="#C1653A" stroke="#4A1F12" stroke-width="1" opacity="0.9"/><circle cx="194.0" cy="-6.0" r="5.6000000000000005" fill="#fff" opacity="0.25"/><circle cx="240.0" cy="0" r="20" fill="#C1653A" stroke="#4A1F12" stroke-width="1" opacity="0.9"/><circle cx="234.0" cy="-6.0" r="5.6000000000000005" fill="#fff" opacity="0.25"/></g><circle cx="450.0" cy="495.00000000000006" r="34" fill="#C1653A" stroke="#4A1F12" stroke-width="2.5"/>
<line x1="450.0" y1="495.00000000000006" x2="481.3" y2="495.0" stroke="#4A1F12" stroke-width="1.3" opacity="0.55"/><line x1="450.0" y1="495.00000000000006" x2="469.5" y2="519.5" stroke="#4A1F12" stroke-width="1.3" opacity="0.55"/><line x1="450.0" y1="495.00000000000006" x2="443.0" y2="525.5" stroke="#4A1F12" stroke-width="1.3" opacity="0.55"/><line x1="450.0" y1="495.00000000000006" x2="421.8" y2="508.6" stroke="#4A1F12" stroke-width="1.3" opacity="0.55"/><line x1="450.0" y1="495.00000000000006" x2="421.8" y2="481.4" stroke="#4A1F12" stroke-width="1.3" opacity="0.55"/><line x1="450.0" y1="495.00000000000006" x2="443.0" y2="464.5" stroke="#4A1F12" stroke-width="1.3" opacity="0.55"/><line x1="450.0" y1="495.00000000000006" x2="469.5" y2="470.5" stroke="#4A1F12" stroke-width="1.3" opacity="0.55"/>
<circle cx="450.0" cy="495.00000000000006" r="6.12" fill="#4A1F12" opacity="0.5"/>
</svg>