<svg viewBox="0 0 1800 1200" xmlns="http://www.w3.org/2000/svg" width="1800" height="1200">
<defs>
<radialGradient id="bgGrad" cx="50%" cy="35%" r="75%">
<stop offset="0%" stop-color="#F6F0E4"/>
<stop offset="100%" stop-color="#EFE5D0"/>
</radialGradient>
<linearGradient id="fade" x1="0" y1="1" x2="0" y2="0">
<stop offset="0%" stop-color="#2B2420" stop-opacity="0.55"/>
<stop offset="55%" stop-color="#2B2420" stop-opacity="0.05"/>
<stop offset="100%" stop-color="#2B2420" stop-opacity="0"/>
</linearGradient>

</defs>
<rect width="1800" height="1200" fill="url(#bgGrad)"/>
<g transform="translate(144.0,144.0) rotate(20) scale(1.1)" opacity="0.35">
<path d="M0,0 C10,-18 30,-24 46,-20 C34,-10 28,4 20,14 C12,6 4,2 0,0 Z" fill="#C89B3C"/>
<path d="M0,0 C-10,-18 -30,-24 -46,-20 C-34,-10 -28,4 -20,14 C-12,6 -4,2 0,0 Z" fill="#C89B3C" opacity="0.8"/>
</g><g transform="translate(1656.0,1020.0) rotate(200) scale(1.3)" opacity="0.28">
<path d="M0,0 C10,-18 30,-24 46,-20 C34,-10 28,4 20,14 C12,6 4,2 0,0 Z" fill="#C1653A"/>
<path d="M0,0 C-10,-18 -30,-24 -46,-20 C-34,-10 -28,4 -20,14 C-12,6 -4,2 0,0 Z" fill="#C1653A" opacity="0.8"/>
</g><g transform="translate(900.0,744.0) rotate(-6)"><circle cx="-232.0" cy="0" r="26" fill="#E4C578" stroke="#4A1F12" stroke-width="1" opacity="0.9"/><circle cx="-239.8" cy="-7.8" r="7.280000000000001" fill="#fff" opacity="0.25"/><circle cx="-174.0" cy="0" r="26" fill="#E4C578" stroke="#4A1F12" stroke-width="1" opacity="0.9"/><circle cx="-181.8" cy="-7.8" r="7.280000000000001" fill="#fff" opacity="0.25"/><circle cx="-116.0" cy="0" r="26" fill="#E4C578" stroke="#4A1F12" stroke-width="1" opacity="0.9"/><circle cx="-123.8" cy="-7.8" r="7.280000000000001" fill="#fff" opacity="0.25"/><circle cx="-58.0" cy="0" r="26" fill="#E4C578" stroke="#4A1F12" stroke-width="1" opacity="0.9"/><circle cx="-65.8" cy="-7.8" r="7.280000000000001" fill="#fff" opacity="0.25"/><circle cx="0.0" cy="0" r="26" fill="#E4C578" stroke="#4A1F12" stroke-width="1" opacity="0.9"/><circle cx="-7.8" cy="-7.8" r="7.280000000000001" fill="#fff" opacity="0.25"/><circle cx="58.0" cy="0" r="26" fill="#E4C578" stroke="#4A1F12" stroke-width="1" opacity="0.9"/><circle cx="50.2" cy="-7.8" r="7.280000000000001" fill="#fff" opacity="0.25"/><circle cx="116.0" cy="0" r="26" fill="#E4C578" stroke="#4A1F12" stroke-width="1" opacity="0.9"/><circle cx="108.2" cy="-7.8" r="7.280000000000001" fill="#fff" opacity="0.25"/><circle cx="174.0" cy="0" r="26" fill="#E4C578" stroke="#4A1F12" stroke-width="1" opacity="0.9"/><circle cx="166.2" cy="-7.8" r="7.280000000000001" fill="#fff" opacity="0.25"/><circle cx="232.0" cy="0" r="26" fill="#E4C578" stroke="#4A1F12" stroke-width="1" opacity="0.9"/><circle cx="224.2" cy="-7.8" r="7.280000000000001" fill="#fff" opacity="0.25"/></g><circle cx="668.0" cy="740.0" r="30" fill="#C1653A" stroke="#4A1F12" stroke-width="2.5"/>
<line x1="668.0" y1="740.0" x2="695.6" y2="740.0" stroke="#4A1F12" stroke-width="1.3" opacity="0.55"/><line x1="668.0" y1="740.0" x2="685.2" y2="761.6" stroke="#4A1F12" stroke-width="1.3" opacity="0.55"/><line x1="668.0" y1="740.0" x2="661.9" y2="766.9" stroke="#4A1F12" stroke-width="1.3" opacity="0.55"/><line x1="668.0" y1="740.0" x2="643.1" y2="752.0" stroke="#4A1F12" stroke-width="1.3" opacity="0.55"/><line x1="668.0" y1="740.0" x2="643.1" y2="728.0" stroke="#4A1F12" stroke-width="1.3" opacity="0.55"/><line x1="668.0" y1="740.0" x2="661.9" y2="713.1" stroke="#4A1F12" stroke-width="1.3" opacity="0.55"/><line x1="668.0" y1="740.0" x2="685.2" y2="718.4" stroke="#4A1F12" stroke-width="1.3" opacity="0.55"/>
<circle cx="668.0" cy="740.0" r="5.3999999999999995" fill="#4A1F12" opacity="0.5"/><circle cx="1132.0" cy="740.0" r="30" fill="#C1653A" stroke="#4A1F12" stroke-width="2.5"/>
<line x1="1132.0" y1="740.0" x2="1159.6" y2="740.0" stroke="#4A1F12" stroke-width="1.3" opacity="0.55"/><line x1="1132.0" y1="740.0" x2="1149.2" y2="761.6" stroke="#4A1F12" stroke-width="1.3" opacity="0.55"/><line x1="1132.0" y1="740.0" x2="1125.9" y2="766.9" stroke="#4A1F12" stroke-width="1.3" opacity="0.55"/><line x1="1132.0" y1="740.0" x2="1107.1" y2="752.0" stroke="#4A1F12" stroke-width="1.3" opacity="0.55"/><line x1="1132.0" y1="740.0" x2="1107.1" y2="728.0" stroke="#4A1F12" stroke-width="1.3" opacity="0.55"/><line x1="1132.0" y1="740.0" x2="1125.9" y2="713.1" stroke="#4A1F12" stroke-width="1.3" opacity="0.55"/><line x1="1132.0" y1="740.0" x2="1149.2" y2="718.4" stroke="#4A1F12" stroke-width="1.3" opacity="0.55"/>
<circle cx="1132.0" cy="740.0" r="5.3999999999999995" fill="#4A1F12" opacity="0.5"/>
<polygon points="550.0,838.0 564.3,857.5 560.4,890.0 539.6,890.0 535.7,857.5" fill="#8A9A7E" stroke="#4A1F12" stroke-width="2"/>
<line x1="550.0" y1="838.0" x2="550.0" y2="890.0" stroke="#4A1F12" stroke-width="1" opacity="0.4"/>
<line x1="535.7" y1="857.5" x2="550.0" y2="869.2" stroke="#4A1F12" stroke-width="1" opacity="0.3"/>
<line x1="564.3" y1="857.5" x2="550.0" y2="869.2" stroke="#4A1F12" stroke-width="1" opacity="0.3"/>
<polygon points="550.0,838.0 564.3,857.5 550.0,849.7" fill="#E4C578" opacity="0.5"/>

<polygon points="1250.0,862.0 1262.1,878.5 1258.8,906.0 1241.2,906.0 1237.9,878.5" fill="#A54F2B" stroke="#4A1F12" stroke-width="2"/>
<line x1="1250.0" y1="862.0" x2="1250.0" y2="906.0" stroke="#4A1F12" stroke-width="1" opacity="0.4"/>
<line x1="1237.9" y1="878.5" x2="1250.0" y2="888.4" stroke="#4A1F12" stroke-width="1" opacity="0.3"/>
<line x1="1262.1" y1="878.5" x2="1250.0" y2="888.4" stroke="#4A1F12" stroke-width="1" opacity="0.3"/>
<polygon points="1250.0,862.0 1262.1,878.5 1250.0,871.9" fill="#E4C578" opacity="0.5"/>

<polygon points="900.0,894.0 916.5,916.5 912.0,954.0 888.0,954.0 883.5,916.5" fill="#C89B3C" stroke="#4A1F12" stroke-width="2"/>
<line x1="900.0" y1="894.0" x2="900.0" y2="954.0" stroke="#4A1F12" stroke-width="1" opacity="0.4"/>
<line x1="883.5" y1="916.5" x2="900.0" y2="930.0" stroke="#4A1F12" stroke-width="1" opacity="0.3"/>
<line x1="916.5" y1="916.5" x2="900.0" y2="930.0" stroke="#4A1F12" stroke-width="1" opacity="0.3"/>
<polygon points="900.0,894.0 916.5,916.5 900.0,907.5" fill="#E4C578" opacity="0.5"/>
<rect width="1800" height="1200" fill="url(#fade)"/>
</svg>