<svg viewBox="0 0 900 900" xmlns="http://www.w3.org/2000/svg" width="900" height="900">
<defs>
<radialGradient id="bgGrad" cx="50%" cy="35%" r="75%">
<stop offset="0%" stop-color="#F6F0E4"/>
<stop offset="100%" stop-color="#EFE5D0"/>
</radialGradient>
</defs>
<rect width="900" height="900" fill="url(#bgGrad)"/>
<g transform="translate(72.0,108.0) rotate(20) scale(1.1)" opacity="0.35">
<path d="M0,0 C10,-18 30,-24 46,-20 C34,-10 28,4 20,14 C12,6 4,2 0,0 Z" fill="#C89B3C"/>
<path d="M0,0 C-10,-18 -30,-24 -46,-20 C-34,-10 -28,4 -20,14 C-12,6 -4,2 0,0 Z" fill="#C89B3C" opacity="0.8"/>
</g><g transform="translate(828.0,765.0) rotate(200) scale(1.3)" opacity="0.28">
<path d="M0,0 C10,-18 30,-24 46,-20 C34,-10 28,4 20,14 C12,6 4,2 0,0 Z" fill="#C1653A"/>
<path d="M0,0 C-10,-18 -30,-24 -46,-20 C-34,-10 -28,4 -20,14 C-12,6 -4,2 0,0 Z" fill="#C1653A" opacity="0.8"/>
</g>
<polygon points="450.0,375.00000000000006 516.0,465.00000000000006 498.0,615.0 402.0,615.0 384.0,465.00000000000006" fill="#C1653A" stroke="#4A1F12" stroke-width="2"/>
<line x1="450.0" y1="375.00000000000006" x2="450.0" y2="615.0" stroke="#4A1F12" stroke-width="1" opacity="0.4"/>
<line x1="384.0" y1="465.00000000000006" x2="450.0" y2="519.0" stroke="#4A1F12" stroke-width="1" opacity="0.3"/>
<line x1="516.0" y1="465.00000000000006" x2="450.0" y2="519.0" stroke="#4A1F12" stroke-width="1" opacity="0.3"/>
<polygon points="450.0,375.00000000000006 516.0,465.00000000000006 450.0,429.00000000000006" fill="#E4C578" opacity="0.5"/>
<g transform="translate(162.0,765.0) rotate(80) scale(1.0)" opacity="0.4">
<path d="M0,0 C10,-18 30,-24 46,-20 C34,-10 28,4 20,14 C12,6 4,2 0,0 Z" fill="#C89B3C"/>
<path d="M0,0 C-10,-18 -30,-24 -46,-20 C-34,-10 -28,4 -20,14 C-12,6 -4,2 0,0 Z" fill="#C89B3C" opacity="0.8"/>
</g>
</svg>