<svg viewBox="0 0 900 900" xmlns="http://www.w3.org/2000/svg" width="900" height="900">
<defs>
<radialGradient id="bgGrad" cx="50%" cy="35%" r="75%">
<stop offset="0%" stop-color="#F6F0E4"/>
<stop offset="100%" stop-color="#EFE5D0"/>
</radialGradient>
</defs>
<rect width="900" height="900" fill="url(#bgGrad)"/>
<g transform="translate(72.0,108.0) rotate(20) scale(1.1)" opacity="0.35">
<path d="M0,0 C10,-18 30,-24 46,-20 C34,-10 28,4 20,14 C12,6 4,2 0,0 Z" fill="#C89B3C"/>
<path d="M0,0 C-10,-18 -30,-24 -46,-20 C-34,-10 -28,4 -20,14 C-12,6 -4,2 0,0 Z" fill="#C89B3C" opacity="0.8"/>
</g><g transform="translate(828.0,765.0) rotate(200) scale(1.3)" opacity="0.28">
<path d="M0,0 C10,-18 30,-24 46,-20 C34,-10 28,4 20,14 C12,6 4,2 0,0 Z" fill="#C1653A"/>
<path d="M0,0 C-10,-18 -30,-24 -46,-20 C-34,-10 -28,4 -20,14 C-12,6 -4,2 0,0 Z" fill="#C1653A" opacity="0.8"/>
</g><g transform="translate(450.0,495.00000000000006) rotate(0)"><circle cx="-180.0" cy="0" r="28" fill="#C1653A" stroke="#4A1F12" stroke-width="1" opacity="0.9"/><circle cx="-188.4" cy="-8.4" r="7.840000000000001" fill="#fff" opacity="0.25"/><circle cx="-120.0" cy="0" r="28" fill="#C1653A" stroke="#4A1F12" stroke-width="1" opacity="0.9"/><circle cx="-128.4" cy="-8.4" r="7.840000000000001" fill="#fff" opacity="0.25"/><circle cx="-60.0" cy="0" r="28" fill="#C1653A" stroke="#4A1F12" stroke-width="1" opacity="0.9"/><circle cx="-68.4" cy="-8.4" r="7.840000000000001" fill="#fff" opacity="0.25"/><circle cx="0.0" cy="0" r="28" fill="#C1653A" stroke="#4A1F12" stroke-width="1" opacity="0.9"/><circle cx="-8.4" cy="-8.4" r="7.840000000000001" fill="#fff" opacity="0.25"/><circle cx="60.0" cy="0" r="28" fill="#C1653A" stroke="#4A1F12" stroke-width="1" opacity="0.9"/><circle cx="51.6" cy="-8.4" r="7.840000000000001" fill="#fff" opacity="0.25"/><circle cx="120.0" cy="0" r="28" fill="#C1653A" stroke="#4A1F12" stroke-width="1" opacity="0.9"/><circle cx="111.6" cy="-8.4" r="7.840000000000001" fill="#fff" opacity="0.25"/><circle cx="180.0" cy="0" r="28" fill="#C1653A" stroke="#4A1F12" stroke-width="1" opacity="0.9"/><circle cx="171.6" cy="-8.4" r="7.840000000000001" fill="#fff" opacity="0.25"/></g><g transform="translate(162.0,765.0) rotate(70) scale(1.0)" opacity="0.4">
<path d="M0,0 C10,-18 30,-24 46,-20 C34,-10 28,4 20,14 C12,6 4,2 0,0 Z" fill="#C89B3C"/>
<path d="M0,0 C-10,-18 -30,-24 -46,-20 C-34,-10 -28,4 -20,14 C-12,6 -4,2 0,0 Z" fill="#C89B3C" opacity="0.8"/>
</g>
</svg>