<svg viewBox="0 0 900 900" xmlns="http://www.w3.org/2000/svg" width="900" height="900">
<defs>
<radialGradient id="bgGrad" cx="50%" cy="35%" r="75%">
<stop offset="0%" stop-color="#F6F0E4"/>
<stop offset="100%" stop-color="#EFE5D0"/>
</radialGradient>
</defs>
<rect width="900" height="900" fill="url(#bgGrad)"/>
<g transform="translate(72.0,108.0) rotate(20) scale(1.1)" opacity="0.35">
<path d="M0,0 C10,-18 30,-24 46,-20 C34,-10 28,4 20,14 C12,6 4,2 0,0 Z" fill="#C89B3C"/>
<path d="M0,0 C-10,-18 -30,-24 -46,-20 C-34,-10 -28,4 -20,14 C-12,6 -4,2 0,0 Z" fill="#C89B3C" opacity="0.8"/>
</g><g transform="translate(828.0,765.0) rotate(200) scale(1.3)" opacity="0.28">
<path d="M0,0 C10,-18 30,-24 46,-20 C34,-10 28,4 20,14 C12,6 4,2 0,0 Z" fill="#C1653A"/>
<path d="M0,0 C-10,-18 -30,-24 -46,-20 C-34,-10 -28,4 -20,14 C-12,6 -4,2 0,0 Z" fill="#C1653A" opacity="0.8"/>
</g><circle cx="450.0" cy="495.00000000000006" r="140" fill="none" stroke="#4A1F12" stroke-width="2" opacity="0.3"/><g transform="translate(310.0,495.00000000000006) rotate(0)"><circle cx="0.0" cy="0" r="18" fill="#C89B3C" stroke="#4A1F12" stroke-width="1" opacity="0.9"/><circle cx="-5.3999999999999995" cy="-5.3999999999999995" r="5.040000000000001" fill="#fff" opacity="0.25"/></g><circle cx="590.0" cy="495.0" r="16" fill="#C89B3C" stroke="#4A1F12" stroke-width="1.5"/><circle cx="576.1" cy="555.7" r="16" fill="#C89B3C" stroke="#4A1F12" stroke-width="1.5"/><circle cx="537.3" cy="604.5" r="16" fill="#C89B3C" stroke="#4A1F12" stroke-width="1.5"/><circle cx="481.2" cy="631.5" r="16" fill="#C89B3C" stroke="#4A1F12" stroke-width="1.5"/><circle cx="418.8" cy="631.5" r="16" fill="#C89B3C" stroke="#4A1F12" stroke-width="1.5"/><circle cx="362.7" cy="604.5" r="16" fill="#C89B3C" stroke="#4A1F12" stroke-width="1.5"/><circle cx="323.9" cy="555.7" r="16" fill="#C89B3C" stroke="#4A1F12" stroke-width="1.5"/><circle cx="310.0" cy="495.0" r="16" fill="#C89B3C" stroke="#4A1F12" stroke-width="1.5"/><circle cx="323.9" cy="434.3" r="16" fill="#C89B3C" stroke="#4A1F12" stroke-width="1.5"/><circle cx="362.7" cy="385.5" r="16" fill="#C89B3C" stroke="#4A1F12" stroke-width="1.5"/><circle cx="418.8" cy="358.5" r="16" fill="#C89B3C" stroke="#4A1F12" stroke-width="1.5"/><circle cx="481.2" cy="358.5" r="16" fill="#C89B3C" stroke="#4A1F12" stroke-width="1.5"/><circle cx="537.3" cy="385.5" r="16" fill="#C89B3C" stroke="#4A1F12" stroke-width="1.5"/><circle cx="576.1" cy="434.3" r="16" fill="#C89B3C" stroke="#4A1F12" stroke-width="1.5"/>
</svg>