<svg viewBox="0 0 900 900" xmlns="http://www.w3.org/2000/svg" width="900" height="900">
<defs>
<radialGradient id="bgGrad" cx="50%" cy="35%" r="75%">
<stop offset="0%" stop-color="#F6F0E4"/>
<stop offset="100%" stop-color="#EFE5D0"/>
</radialGradient>
</defs>
<rect width="900" height="900" fill="url(#bgGrad)"/>
<g transform="translate(72.0,108.0) rotate(20) scale(1.1)" opacity="0.35">
<path d="M0,0 C10,-18 30,-24 46,-20 C34,-10 28,4 20,14 C12,6 4,2 0,0 Z" fill="#C89B3C"/>
<path d="M0,0 C-10,-18 -30,-24 -46,-20 C-34,-10 -28,4 -20,14 C-12,6 -4,2 0,0 Z" fill="#C89B3C" opacity="0.8"/>
</g><g transform="translate(828.0,765.0) rotate(200) scale(1.3)" opacity="0.28">
<path d="M0,0 C10,-18 30,-24 46,-20 C34,-10 28,4 20,14 C12,6 4,2 0,0 Z" fill="#C1653A"/>
<path d="M0,0 C-10,-18 -30,-24 -46,-20 C-34,-10 -28,4 -20,14 C-12,6 -4,2 0,0 Z" fill="#C1653A" opacity="0.8"/>
</g><circle cx="640.0" cy="450.0" r="14" fill="#A54F2B" stroke="#4A1F12" stroke-width="1.2"/><circle cx="633.5" cy="491.8" r="14" fill="#A54F2B" stroke="#4A1F12" stroke-width="1.2"/><circle cx="614.5" cy="530.8" r="14" fill="#A54F2B" stroke="#4A1F12" stroke-width="1.2"/><circle cx="584.4" cy="564.2" r="14" fill="#A54F2B" stroke="#4A1F12" stroke-width="1.2"/><circle cx="545.0" cy="589.9" r="14" fill="#A54F2B" stroke="#4A1F12" stroke-width="1.2"/><circle cx="499.2" cy="606.0" r="14" fill="#A54F2B" stroke="#4A1F12" stroke-width="1.2"/><circle cx="450.0" cy="611.5" r="14" fill="#A54F2B" stroke="#4A1F12" stroke-width="1.2"/><circle cx="400.8" cy="606.0" r="14" fill="#A54F2B" stroke="#4A1F12" stroke-width="1.2"/><circle cx="355.0" cy="589.9" r="14" fill="#A54F2B" stroke="#4A1F12" stroke-width="1.2"/><circle cx="315.6" cy="564.2" r="14" fill="#A54F2B" stroke="#4A1F12" stroke-width="1.2"/><circle cx="285.5" cy="530.8" r="14" fill="#A54F2B" stroke="#4A1F12" stroke-width="1.2"/><circle cx="266.5" cy="491.8" r="14" fill="#A54F2B" stroke="#4A1F12" stroke-width="1.2"/><circle cx="260.0" cy="450.0" r="14" fill="#A54F2B" stroke="#4A1F12" stroke-width="1.2"/><circle cx="266.5" cy="408.2" r="14" fill="#A54F2B" stroke="#4A1F12" stroke-width="1.2"/><circle cx="285.5" cy="369.2" r="14" fill="#A54F2B" stroke="#4A1F12" stroke-width="1.2"/><circle cx="315.6" cy="335.8" r="14" fill="#A54F2B" stroke="#4A1F12" stroke-width="1.2"/><circle cx="355.0" cy="310.1" r="14" fill="#A54F2B" stroke="#4A1F12" stroke-width="1.2"/><circle cx="400.8" cy="294.0" r="14" fill="#A54F2B" stroke="#4A1F12" stroke-width="1.2"/><circle cx="450.0" cy="288.5" r="14" fill="#A54F2B" stroke="#4A1F12" stroke-width="1.2"/><circle cx="499.2" cy="294.0" r="14" fill="#A54F2B" stroke="#4A1F12" stroke-width="1.2"/><circle cx="545.0" cy="310.1" r="14" fill="#A54F2B" stroke="#4A1F12" stroke-width="1.2"/><circle cx="584.4" cy="335.8" r="14" fill="#A54F2B" stroke="#4A1F12" stroke-width="1.2"/><circle cx="614.5" cy="369.2" r="14" fill="#A54F2B" stroke="#4A1F12" stroke-width="1.2"/><circle cx="633.5" cy="408.2" r="14" fill="#A54F2B" stroke="#4A1F12" stroke-width="1.2"/><circle cx="450.0" cy="765.0" r="26" fill="#C89B3C" stroke="#4A1F12" stroke-width="2.5"/>
<line x1="450.0" y1="765.0" x2="473.9" y2="765.0" stroke="#4A1F12" stroke-width="1.3" opacity="0.55"/><line x1="450.0" y1="765.0" x2="464.9" y2="783.7" stroke="#4A1F12" stroke-width="1.3" opacity="0.55"/><line x1="450.0" y1="765.0" x2="444.7" y2="788.3" stroke="#4A1F12" stroke-width="1.3" opacity="0.55"/><line x1="450.0" y1="765.0" x2="428.4" y2="775.4" stroke="#4A1F12" stroke-width="1.3" opacity="0.55"/><line x1="450.0" y1="765.0" x2="428.4" y2="754.6" stroke="#4A1F12" stroke-width="1.3" opacity="0.55"/><line x1="450.0" y1="765.0" x2="444.7" y2="741.7" stroke="#4A1F12" stroke-width="1.3" opacity="0.55"/><line x1="450.0" y1="765.0" x2="464.9" y2="746.3" stroke="#4A1F12" stroke-width="1.3" opacity="0.55"/>
<circle cx="450.0" cy="765.0" r="4.68" fill="#4A1F12" opacity="0.5"/>
</svg>