<svg viewBox="0 0 900 900" xmlns="http://www.w3.org/2000/svg" width="900" height="900">
<defs>
<radialGradient id="bgGrad" cx="50%" cy="35%" r="75%">
<stop offset="0%" stop-color="#F6F0E4"/>
<stop offset="100%" stop-color="#EFE5D0"/>
</radialGradient>
</defs>
<rect width="900" height="900" fill="url(#bgGrad)"/>
<g transform="translate(72.0,108.0) rotate(20) scale(1.1)" opacity="0.35">
<path d="M0,0 C10,-18 30,-24 46,-20 C34,-10 28,4 20,14 C12,6 4,2 0,0 Z" fill="#C89B3C"/>
<path d="M0,0 C-10,-18 -30,-24 -46,-20 C-34,-10 -28,4 -20,14 C-12,6 -4,2 0,0 Z" fill="#C89B3C" opacity="0.8"/>
</g><g transform="translate(828.0,765.0) rotate(200) scale(1.3)" opacity="0.28">
<path d="M0,0 C10,-18 30,-24 46,-20 C34,-10 28,4 20,14 C12,6 4,2 0,0 Z" fill="#C1653A"/>
<path d="M0,0 C-10,-18 -30,-24 -46,-20 C-34,-10 -28,4 -20,14 C-12,6 -4,2 0,0 Z" fill="#C1653A" opacity="0.8"/>
</g><g transform="translate(450.0,495.00000000000006) rotate(0)"><circle cx="-248.0" cy="0" r="30" fill="#C1653A" stroke="#4A1F12" stroke-width="1" opacity="0.9"/><circle cx="-257.0" cy="-9.0" r="8.4" fill="#fff" opacity="0.25"/><circle cx="-186.0" cy="0" r="30" fill="#C1653A" stroke="#4A1F12" stroke-width="1" opacity="0.9"/><circle cx="-195.0" cy="-9.0" r="8.4" fill="#fff" opacity="0.25"/><circle cx="-124.0" cy="0" r="30" fill="#C1653A" stroke="#4A1F12" stroke-width="1" opacity="0.9"/><circle cx="-133.0" cy="-9.0" r="8.4" fill="#fff" opacity="0.25"/><circle cx="-62.0" cy="0" r="30" fill="#C1653A" stroke="#4A1F12" stroke-width="1" opacity="0.9"/><circle cx="-71.0" cy="-9.0" r="8.4" fill="#fff" opacity="0.25"/><circle cx="0.0" cy="0" r="30" fill="#C1653A" stroke="#4A1F12" stroke-width="1" opacity="0.9"/><circle cx="-9.0" cy="-9.0" r="8.4" fill="#fff" opacity="0.25"/><circle cx="62.0" cy="0" r="30" fill="#C1653A" stroke="#4A1F12" stroke-width="1" opacity="0.9"/><circle cx="53.0" cy="-9.0" r="8.4" fill="#fff" opacity="0.25"/><circle cx="124.0" cy="0" r="30" fill="#C1653A" stroke="#4A1F12" stroke-width="1" opacity="0.9"/><circle cx="115.0" cy="-9.0" r="8.4" fill="#fff" opacity="0.25"/><circle cx="186.0" cy="0" r="30" fill="#C1653A" stroke="#4A1F12" stroke-width="1" opacity="0.9"/><circle cx="177.0" cy="-9.0" r="8.4" fill="#fff" opacity="0.25"/><circle cx="248.0" cy="0" r="30" fill="#C1653A" stroke="#4A1F12" stroke-width="1" opacity="0.9"/><circle cx="239.0" cy="-9.0" r="8.4" fill="#fff" opacity="0.25"/></g><circle cx="450.0" cy="495.00000000000006" r="46" fill="#C1653A" stroke="#4A1F12" stroke-width="2.5"/>
<line x1="450.0" y1="495.00000000000006" x2="492.3" y2="495.0" stroke="#4A1F12" stroke-width="1.3" opacity="0.55"/><line x1="450.0" y1="495.00000000000006" x2="476.4" y2="528.1" stroke="#4A1F12" stroke-width="1.3" opacity="0.55"/><line x1="450.0" y1="495.00000000000006" x2="440.6" y2="536.3" stroke="#4A1F12" stroke-width="1.3" opacity="0.55"/><line x1="450.0" y1="495.00000000000006" x2="411.9" y2="513.4" stroke="#4A1F12" stroke-width="1.3" opacity="0.55"/><line x1="450.0" y1="495.00000000000006" x2="411.9" y2="476.6" stroke="#4A1F12" stroke-width="1.3" opacity="0.55"/><line x1="450.0" y1="495.00000000000006" x2="440.6" y2="453.7" stroke="#4A1F12" stroke-width="1.3" opacity="0.55"/><line x1="450.0" y1="495.00000000000006" x2="476.4" y2="461.9" stroke="#4A1F12" stroke-width="1.3" opacity="0.55"/>
<circle cx="450.0" cy="495.00000000000006" r="8.28" fill="#4A1F12" opacity="0.5"/>
</svg>